<?xml version="1.0" encoding="UTF-8" standalone="no"?>
<!-- Created with Inkscape (http://www.inkscape.org/) -->

<svg
   width="210mm"
   height="297mm"
   viewBox="0 0 210 297"
   version="1.1"
   id="svg1"
   inkscape:version="1.3.2 (091e20e, 2023-11-25, custom)"
   sodipodi:docname="Barracks.svg"
   xmlns:inkscape="http://www.inkscape.org/namespaces/inkscape"
   xmlns:sodipodi="http://sodipodi.sourceforge.net/DTD/sodipodi-0.dtd"
   xmlns="http://www.w3.org/2000/svg"
   xmlns:svg="http://www.w3.org/2000/svg">
  <sodipodi:namedview
     id="namedview1"
     pagecolor="#505050"
     bordercolor="#eeeeee"
     borderopacity="1"
     inkscape:showpageshadow="0"
     inkscape:pageopacity="0"
     inkscape:pagecheckerboard="0"
     inkscape:deskcolor="#505050"
     inkscape:document-units="mm"
     showguides="true"
     inkscape:zoom="2.1543544"
     inkscape:cx="301.25035"
     inkscape:cy="160.83705"
     inkscape:window-width="1920"
     inkscape:window-height="1111"
     inkscape:window-x="-9"
     inkscape:window-y="-9"
     inkscape:window-maximized="1"
     inkscape:current-layer="layer1">
    <sodipodi:guide
       position="45.809355,206.11817"
       orientation="0,-1"
       id="guide1"
       inkscape:locked="false" />
  </sodipodi:namedview>
  <defs
     id="defs1" />
  <g
     inkscape:label="Слой 1"
     inkscape:groupmode="layer"
     id="layer1"
     style="display:inline">
    <rect
       style="display:inline;fill:#ff6600;stroke-width:0.109264;opacity:0"
       id="rect1"
       width="23.070545"
       height="23.070545"
       x="52.658867"
       y="-13.967274"
       ry="0"
       rx="0"
       transform="matrix(0.86690631,0.4984711,-0.86690631,0.4984711,0,0)"
       inkscape:export-filename="..\MIPT_Programming_project\Textures\Barracks.png"
       inkscape:export-xdpi="200"
       inkscape:export-ydpi="200" />
    <rect
       style="display:inline;fill:#552200;stroke-width:0.28151;opacity:0"
       id="rect7"
       width="23.064779"
       height="16.378414"
       x="43.441757"
       y="9.1840887"
       transform="matrix(0.86722723,0.49791257,0.00507004,0.99998715,0,0)"
       inkscape:label="rect7" />
    <rect
       style="display:inline;opacity:0;fill:#aa4400;stroke-width:0.28151"
       id="rect7-4"
       width="23.064779"
       height="16.378414"
       x="-90.089455"
       y="75.680779"
       transform="matrix(-0.86722723,0.49791257,-0.00507004,0.99998715,0,0)" />
    <path
       style="opacity:0;fill:#280b0b;stroke-width:0.264583"
       d="m 49.493754,29.598 7.155704,-4.131347"
       id="path31"
       inkscape:export-filename="..\MIPT_Programming_project\Textures\Barracks.png"
       inkscape:export-xdpi="200"
       inkscape:export-ydpi="200" />
    <path
       style="opacity:0;fill:#ff8080;stroke-width:0.264583"
       d="M 47.774367,26.773295 58.704749,25.360941 48.019993,23.825776 Z"
       id="path32" />
    <path
       style="opacity:1;fill:#e3dedb;stroke-width:0.264583"
       d="m 48.818281,33.036774 8.719743,0.614066 -1.228135,-7.553018 -5.465191,-0.245626 z"
       id="path34" />
    <path
       style="opacity:1;fill:#c8beb7;stroke-width:0.271813"
       d="M 50.967511,26.003223 49.036712,33.159584 42.247769,28.81465 47.23048,23.702964 Z"
       id="path35" />
    <path
       style="opacity:1;fill:#483e37;stroke-width:0.264583"
       d="m 57.599429,33.65084 -1.043911,-5.772224 1.350946,-1.965013 2.394858,-0.982506 2.333453,0.921099 1.350946,4.421277 z"
       id="path36" />
    <path
       style="opacity:1;fill:#e3dedb;stroke-width:0.264583"
       d="m 56.432703,28.001428 1.412354,-2.087825 2.394858,-0.982506 -0.245626,-0.675474 -3.868619,1.780792 z"
       id="path37" />
    <path
       style="opacity:1;fill:#e3dedb;stroke-width:0.264583"
       d="m 58.52053,24.931097 3.131738,-1.350947 1.043914,2.272046 -2.456267,-0.921099 z"
       id="path38" />
    <path
       style="opacity:1;fill:#fff6d5;stroke-width:0.272108"
       d="m 55.926099,26.159229 5.910388,-2.456265 -4.156755,-3.008926 -2.597975,1.105319 z"
       id="path39" />
    <path
       style="opacity:1;fill:#c8beb7;stroke-width:0.272344"
       d="m 50.66048,25.852196 5.46519,0.307033 -0.845803,-4.482685 -2.342226,-0.06141 z"
       id="path40" />
    <path
       style="opacity:1;fill:#917c6f;stroke-width:0.267607"
       d="m 47.283113,23.77637 3.561585,2.198639 2.02642,-4.271644 -1.166725,-1.193547 z"
       id="path41" />
    <path
       style="opacity:1;fill:#e3dedb;stroke-width:0.264583"
       d="m 61.652268,23.764369 2.333453,6.324886 1.780792,-2.394861 z"
       id="path42" />
    <path
       style="opacity:1;fill:#241f1c;stroke-width:0.264583"
       d="m 51.7658,20.632631 2.149232,-0.982506 2.149231,0.245627 1.65798,0.859692 -2.272046,0.9211 h -2.579079 z"
       id="path43" />
    <path
       style="opacity:1;fill:#241f1c;stroke-width:0.264583"
       d="M 49.432347,32.975367 51.39736,25.97501 50.660479,25.852196 48.756874,32.975367 Z"
       id="path44" />
    <path
       style="opacity:1;fill:#241f1c;stroke-width:0.264583"
       d="m 42.247769,28.861122 4.973939,-5.096753 -0.122814,-0.307033 -5.096751,4.912532 z"
       id="path45" />
    <path
       style="opacity:1;fill:#241f1c;stroke-width:0.264583"
       d="m 47.037487,23.764369 3.561585,2.333453 5.588005,0.307033 6.01785,-2.579079 -0.552659,-0.552659 -5.588005,2.579079 -5.096751,-0.36844 -3.622992,-2.149232 z"
       id="path46" />
    <path
       style="opacity:1;fill:#241f1c;stroke-width:0.264583"
       d="m 61.775083,23.702964 4.114244,3.868619 -0.491255,0.491252 -3.868618,-4.052838 z"
       id="path47" />
    <path
       style="opacity:1;fill:#241f1c;stroke-width:0.264583"
       d="m 46.97608,23.395931 0.491254,0.429845 4.359871,-3.070332 -0.368438,-0.429846 z"
       id="path48" />
    <path
       style="opacity:1;fill:#241f1c;stroke-width:0.264583"
       d="m 51.335953,20.632631 1.166725,1.166726 0.798287,-0.36844 -1.657979,-1.105319 z"
       id="path49" />
    <path
       style="opacity:1;fill:#241f1c;stroke-width:0.264583"
       d="m 52.686899,21.860764 h 2.640486 l -0.06141,-0.73688 -2.333453,0.122814 z"
       id="path50" />
    <path
       style="opacity:1;fill:#241f1c;stroke-width:0.264583"
       d="m 55.265978,21.860764 2.640486,-1.166726 -0.307035,-0.36844 -2.456265,1.043913 -0.122814,0.55266 z"
       id="path51" />
    <path
       style="opacity:1;fill:#241f1c;stroke-width:0.264583"
       d="m 52.564085,21.860764 h 2.701893 v -0.675473 h -2.456267 z"
       id="path52" />
    <path
       style="opacity:1;fill:#241f1c;stroke-width:0.264583"
       d="m 57.169584,33.528026 -0.921099,-5.710817 1.473758,-2.087827 2.517672,-0.982507 2.149234,0.614066 1.842198,4.359873 -0.429847,0.859692 -1.473758,-4.544091 -2.02642,-0.798285 -2.149232,0.982506 -1.228132,1.719384 0.921099,5.465191 z"
       id="path53" />
    <path
       style="opacity:1;fill:#241f1c;stroke-width:0.264583"
       d="m 57.722243,20.878258 3.377366,2.640485 0.675474,-0.245626 -3.930026,-2.886112 z"
       id="path54" />
    <path
       style="opacity:1;fill:#502d16;stroke-width:0.264583"
       d="m 67.915744,29.843627 1.65798,-0.982506 0.307033,0.675473 -1.903606,1.473759 -1.10532,-0.429845 z"
       id="path55" />
    <path
       style="opacity:1;fill:#502d16;stroke-width:0.264583"
       d="m 68.714032,31.133167 0.675473,-1.350947 0.675471,0.18422 -0.245626,1.412353 z"
       id="path56" />
    <path
       style="opacity:1;fill:#502d16;stroke-width:0.264583"
       d="m 70.801856,31.194574 -1.228132,-1.412354 0.614066,-0.368439 1.65798,1.10532 z"
       id="path57" />
    <path
       style="opacity:1;fill:#502d16;stroke-width:0.264583"
       d="m 69.082472,31.747233 1.96501,-0.982506 0.614069,0.798285 -2.087827,0.675473 z"
       id="path58" />
    <path
       style="opacity:1;fill:#502d16;stroke-width:0.264583"
       d="m 68.099966,30.703319 1.289539,0.736881 -0.429847,0.552659 -1.166725,-0.73688 z"
       id="path59" />
    <path
       style="opacity:1;fill:#ffff00;stroke-width:0.264583"
       d="m 70.003571,29.598 -1.10532,-0.736879 0.614066,-1.043913 0.982506,0.06141 0.36844,1.043913 z"
       id="path60" />
    <path
       style="opacity:1;fill:#ffff00;stroke-width:0.264583"
       d="m 69.635131,26.282042 -0.614066,1.166726 0.245626,1.166726 0.859692,-1.535166 z"
       id="path61" />
    <path
       style="opacity:1;fill:#ffff00;stroke-width:0.264583"
       d="m 70.494823,27.018921 0.429848,1.10532 -0.429848,0.307033 z"
       id="path62" />
    <path
       style="opacity:1;fill:#ff2a2a;stroke-width:0.264583"
       d="m 69.082472,27.878614 c 0,0 0.614066,0.491254 0.736878,0.798287 0.122814,0.307033 -0.614066,0.675473 -0.614066,0.675473 l -0.675474,-0.73688 z"
       id="path63" />
    <path
       style="opacity:1;fill:#ff2a2a;stroke-width:0.264583"
       d="m 70.310604,27.878614 -0.491254,-0.798286 -0.122812,-1.350946 0.614066,0.429846 z"
       id="path64" />
    <path
       style="opacity:1;fill:#ff2a2a;stroke-width:0.264583"
       d="m 70.249197,29.168154 0.122815,-0.982506 0.67547,-0.06141 0.122815,0.798286 z"
       id="path65" />
    <path
       style="opacity:1;fill:#ff2a2a;stroke-width:0.264583"
       d="m 69.021065,27.141735 0.798285,1.043913 0.859695,-0.55266 z"
       id="path66" />
    <path
       style="opacity:1;fill:#ff6600;stroke-width:0.264583"
       d="m 70.064976,28.001428 0.245628,0.859693 -0.552661,0.368439 z"
       id="path67" />
    <path
       style="opacity:1;fill:#ff6600;stroke-width:0.264583"
       d="m 69.45091,26.650482 -0.122812,1.289539 0.675473,0.429847 z"
       id="path68" />
    <path
       style="opacity:1;fill:#ff6600;stroke-width:0.264583"
       d="m 69.205284,27.203141 -0.552659,-1.289539 0.798285,-0.36844 z"
       id="path69" />
    <path
       style="opacity:1;fill:#ffff00;stroke-width:0.264583"
       d="m 70.494823,28.676901 0.982507,-1.965013 -0.368441,-1.350946 0.491255,-0.06141 0.06141,2.517673 z"
       id="path70" />
    <path
       style="opacity:1;fill:#ffff00;stroke-width:0.264583"
       d="m 70.126383,28.124241 0.429847,-1.965013 -0.614066,-1.596572 0.307033,-0.982507 0.368441,3.991432 z"
       id="path71" />
    <path
       style="opacity:1;fill:#ffff00;stroke-width:0.264583"
       d="m 69.942164,25.790789 0.675474,1.903606 0.552659,-0.614067 -0.184219,-1.350946 z"
       id="path72" />
    <path
       style="opacity:1;fill:#ff0000;stroke-width:0.264583"
       d="m 71.354515,27.755801 -0.982503,-1.105319 0.122811,-0.9211 0.36844,0.675473 z"
       id="path73" />
    <path
       style="opacity:1;fill:#502d16;stroke-width:0.264583"
       d="m 70.986078,29.106747 1.105318,1.28954 -0.491252,0.614066 L 70.372012,29.598 Z"
       id="path74" />
    <path
       style="opacity:1;fill:#502d16;stroke-width:0.264583"
       d="m 72.275617,30.212067 -1.043913,0.9211 0.491252,0.798285 1.10532,-1.105318 z"
       id="path75" />
    <path
       style="opacity:1;fill:#502d16;stroke-width:0.264583"
       d="m 68.345592,30.826134 2.272046,0.307033 0.122811,-0.675473 -2.70189,-0.245627 z"
       id="path76" />
    <path
       style="opacity:1;fill:#ac9393;stroke-width:0.264583"
       id="path79"
       d="m 57.718864,27.769531 c 0.0037,0.0293 0.0074,0.0586 0.01111,0.0879 0,0 3.458284,-1.996641 3.458284,-1.996641 v 0 c -0.003,-0.02967 -0.0061,-0.05935 -0.0092,-0.08902 z" />
    <path
       style="opacity:1;fill:#ac9393;stroke-width:0.264583"
       id="path80"
       d="m 58.087066,28.806234 c 0.02655,0.11221 0.01304,0.05169 0.03972,0.181737 0,0 3.457152,-1.995984 3.457152,-1.995984 v 0 c -0.02455,-0.131334 -0.0123,-0.07011 -0.03617,-0.183785 z" />
    <path
       style="opacity:1;fill:#ac9393;stroke-width:0.264583"
       id="path81"
       d="m 58.462902,30.341373 c 0.01942,0.08265 0.05003,0.162005 0.07785,0.242033 0,0 3.458432,-1.996725 3.458432,-1.996725 v 0 c -0.0279,-0.08019 -0.05922,-0.159687 -0.07569,-0.243285 z" />
    <path
       style="opacity:1;fill:#ac9393;stroke-width:0.264583"
       id="path82"
       d="m 58.846219,31.692212 c 0.01384,0.02593 0.02766,0.05185 0.0415,0.07778 0,0 3.458337,-1.996672 3.458337,-1.996672 v 0 c -0.0132,-0.0263 -0.02641,-0.05258 -0.03962,-0.07887 z" />
    <path
       style="opacity:1;fill:#0000ff;stroke-width:0.264583"
       d="m 55.327383,35.063191 0.614068,-0.06141 0.245626,-0.429844 -0.307033,-4.42128 -0.36844,0.122814 -0.429847,0.245626 z"
       id="path85" />
    <path
       style="opacity:1;fill:#000080;stroke-width:0.292989"
       d="m 55.57301,34.939583 -0.892011,0.0622 -0.371671,-0.31102 V 33.57109 l -0.148671,-3.359024 0.371673,0.248816 h 0.594676 z"
       id="path86" />
    <path
       style="opacity:1;fill:#000080;stroke-width:0.264583"
       d="m 54.19136,30.181364 0.36844,-0.568012 0.230275,-0.122812 h 0.276331 l 0.291682,0.107461 0.307033,0.230274 0.153516,0.337738 -0.414496,0.214924 -0.445196,0.184219 -0.521957,-0.0307 -0.245628,-0.245629 z"
       id="path87" />
    <path
       style="opacity:1;fill:#2b1100;stroke-width:0.264583"
       d="m 54.897538,29.85898 -0.06141,-0.752231 0.214923,-0.03071 0.01535,0.153516 0.383792,-0.01535 0.01534,0.245626 h -0.383791 l 0.04606,0.399145 -0.03071,0.09211 z"
       id="path88" />
    <path
       style="display:inline;fill:#0000ff;stroke-width:0.264583"
       d="m 53.562011,34.836056 0.614068,-0.06141 0.245626,-0.429844 -0.307033,-4.42128 -0.36844,0.122814 -0.429847,0.245626 z"
       id="path85-9" />
    <path
       style="display:inline;fill:#000080;stroke-width:0.292989"
       d="m 53.807638,34.712448 -0.892011,0.0622 -0.371671,-0.31102 v -1.119673 l -0.148671,-3.359024 0.371673,0.248816 h 0.594676 z"
       id="path86-5" />
    <path
       style="display:inline;fill:#000080;stroke-width:0.264583"
       d="m 52.425988,29.954229 0.36844,-0.568012 0.230275,-0.122812 h 0.276331 l 0.291682,0.107461 0.307033,0.230274 0.153516,0.337738 -0.414496,0.214924 -0.445196,0.184219 -0.521957,-0.0307 -0.245628,-0.245629 z"
       id="path87-5" />
    <path
       style="display:inline;fill:#2b1100;stroke-width:0.264583"
       d="m 53.132166,29.631845 -0.06141,-0.752231 0.214923,-0.03071 0.01535,0.153516 0.383792,-0.01535 0.01534,0.245626 H 53.31637 l 0.04606,0.399145 -0.03071,0.09211 z"
       id="path88-3" />
    <path
       style="display:inline;fill:#0000ff;stroke-width:0.264583"
       d="m 54.142712,35.728051 0.614068,-0.06141 0.245626,-0.429844 -0.307033,-4.42128 -0.36844,0.122814 -0.429847,0.245626 z"
       id="path85-0" />
    <path
       style="display:inline;fill:#000080;stroke-width:0.292989"
       d="m 54.388339,35.604443 -0.892011,0.0622 -0.371671,-0.31102 V 34.23595 l -0.148671,-3.359024 0.371673,0.248816 h 0.594676 z"
       id="path86-6" />
    <path
       style="display:inline;fill:#000080;stroke-width:0.264583"
       d="m 53.006689,30.846224 0.36844,-0.568012 0.230275,-0.122812 h 0.276331 l 0.291682,0.107461 0.307033,0.230274 0.153516,0.337738 -0.414496,0.214924 -0.445196,0.184219 -0.521957,-0.0307 -0.245628,-0.245629 z"
       id="path87-8" />
    <path
       style="display:inline;fill:#2b1100;stroke-width:0.264583"
       d="m 53.712867,30.52384 -0.06141,-0.752231 0.214923,-0.03071 0.01535,0.153516 0.383792,-0.01535 0.01534,0.245626 h -0.383791 l 0.04606,0.399145 -0.03071,0.09211 z"
       id="path88-7" />
    <path
       style="opacity:0.62;fill:#784421;stroke-width:0.264583"
       d="m 61.099609,33.712245 -0.982506,1.535168 1.412351,0.36844 1.043914,-0.614069 0.491251,-0.614066 z"
       id="path89" />
    <path
       style="opacity:0.62;fill:#784421;stroke-width:0.264583"
       d="m 63.985721,32.361301 v 0.859692 l 1.657977,0.245626 0.921102,-0.614066 v -0.798285 z"
       id="path90" />
    <path
       style="opacity:0.62;fill:#784421;stroke-width:0.264583"
       d="m 65.029632,30.15066 -1.903605,1.10532 0.245625,0.675473 1.228135,-0.429847 z"
       id="path91" />
    <path
       style="opacity:0.62;fill:#784421;stroke-width:0.264583"
       d="m 63.740093,35.186006 -0.675474,1.965012 1.473761,0.429845 1.535166,-1.350944 z"
       id="path92" />
    <path
       style="opacity:0.62;fill:#784421;stroke-width:0.264583"
       d="m 59.257408,33.343807 0.552662,0.921099 1.473758,-0.859694 -0.122814,-0.798285 z"
       id="path93" />
    <path
       style="opacity:0.62;fill:#784421;stroke-width:0.264583"
       d="m 62.020709,32.54552 0.184218,1.10532 1.228133,-0.122814 0.36844,-1.228132 z"
       id="path94" />
    <path
       style="opacity:0.62;fill:#784421;stroke-width:0.264583"
       d="m 63.985721,34.142092 c 0.06141,0.307033 0.614066,1.228133 0.614066,1.228133 h 1.28954 l 0.798285,-1.105319 -0.184219,-0.73688 z"
       id="path95" />
    <path
       style="opacity:0.62;fill:#784421;stroke-width:0.264583"
       d="m 67.85434,32.791146 -0.368441,1.657979 1.043911,0.36844 1.043914,-0.859692 0.06141,-0.982506 z"
       id="path96" />
    <path
       style="opacity:0.62;fill:#784421;stroke-width:0.264583"
       d="m 65.705105,30.580507 -0.36844,1.166728 1.166728,0.122811 0.614066,-0.184218 -0.184221,-0.9211 z"
       id="path97" />
    <path
       style="opacity:0.62;fill:#784421;stroke-width:0.264583"
       d="m 66.749019,35.001784 -0.429847,1.228135 0.184221,0.307033 1.473758,-1.10532 z"
       id="path98" />
  </g>
</svg>
