<?xml version="1.0" encoding="UTF-8" standalone="no"?>
<!-- Created with Inkscape (http://www.inkscape.org/) -->

<svg
   width="210mm"
   height="297mm"
   viewBox="0 0 210 297"
   version="1.1"
   id="svg1"
   inkscape:version="1.3.2 (091e20e, 2023-11-25, custom)"
   sodipodi:docname="black_townhall.svg"
   xmlns:inkscape="http://www.inkscape.org/namespaces/inkscape"
   xmlns:sodipodi="http://sodipodi.sourceforge.net/DTD/sodipodi-0.dtd"
   xmlns:xlink="http://www.w3.org/1999/xlink"
   xmlns="http://www.w3.org/2000/svg"
   xmlns:svg="http://www.w3.org/2000/svg">
  <sodipodi:namedview
     id="namedview1"
     pagecolor="#505050"
     bordercolor="#eeeeee"
     borderopacity="1"
     inkscape:showpageshadow="0"
     inkscape:pageopacity="0"
     inkscape:pagecheckerboard="0"
     inkscape:deskcolor="#505050"
     inkscape:document-units="mm"
     showguides="true"
     inkscape:zoom="4"
     inkscape:cx="216.25"
     inkscape:cy="101.625"
     inkscape:window-width="2048"
     inkscape:window-height="1191"
     inkscape:window-x="-9"
     inkscape:window-y="-9"
     inkscape:window-maximized="1"
     inkscape:current-layer="layer1"
     showgrid="false">
    <sodipodi:guide
       position="45.809355,206.11817"
       orientation="0,-1"
       id="guide1"
       inkscape:locked="false" />
  </sodipodi:namedview>
  <defs
     id="defs1" />
  <g
     inkscape:label="Слой 1"
     inkscape:groupmode="layer"
     id="layer1">
    <rect
       style="fill:#ff6600;stroke-width:0.109264;opacity:0"
       id="rect1"
       width="23.070545"
       height="23.070545"
       x="52.608067"
       y="-13.970384"
       ry="0"
       rx="0"
       transform="matrix(0.86690632,0.4984711,-0.86690632,0.4984711,0,0)"
       inkscape:export-filename="Miner_left.png"
       inkscape:export-xdpi="200"
       inkscape:export-ydpi="200" />
    <path
       style="fill:#333333;stroke-width:0.235713"
       d="m 49.259152,20.839143 -0.630147,0.16508 -7.703261,8.530484 4.22129,1.866328 z"
       id="path58" />
    <path
       style="fill:#1a1a1a;stroke-width:0.235713"
       d="m 40.890567,29.481211 7.668679,-8.494217 0.28142,-0.06252 -7.891471,8.71685 z"
       id="path121" />
    <path
       style="fill:#000000;stroke-width:0.235713"
       d="m 41.066453,29.545092 5.042097,-5.600135 -1.149129,7.389788 z"
       id="path122" />
    <rect
       style="fill:#552200;stroke-width:0.28151;opacity:0"
       id="rect7"
       width="23.064779"
       height="16.378414"
       x="43.441757"
       y="9.1840887"
       transform="matrix(0.86722723,0.49791257,0.00507004,0.99998715,0,0)" />
    <rect
       style="fill:#aa4400;stroke-width:0.28151;opacity:0"
       id="rect7-4"
       width="23.064779"
       height="16.378414"
       x="-90.089455"
       y="75.680779"
       transform="matrix(-0.86722723,0.49791257,-0.00507004,0.99998715,0,0)" />
    <path
       style="fill:#aa8800;stroke-width:0.264583"
       d="m 58.390234,26.87588 -0.76481,-1.401466 z"
       id="path139" />
    <path
       style="fill:#1a1a1a;stroke-width:0.264583"
       d="m 66.720498,16.908139 -11.318865,6.969053 -0.09355,13.587314 11.482568,-7.03921 z"
       id="path54" />
    <path
       style="fill:#000000;stroke-width:0.264583"
       d="m 55.420403,23.722851 -0.06615,13.758333 -6.945312,-4.034896 z"
       id="path45" />
    <path
       style="fill:#1a1a1a;stroke-width:0.264583"
       d="M 48.508163,33.413214 55.354257,23.954361 50.39332,21.506965 Z"
       id="path46" />
    <path
       style="fill:#4d4d4d;stroke-width:0.264583"
       d="m 53.469101,15.223111 -1.422136,7.14375 3.075782,1.719791 z"
       id="path49" />
    <path
       style="fill:#1a1a1a;stroke-width:0.264583"
       d="m 53.402955,15.223111 3.340365,1.81901 -1.719792,7.209896 z"
       id="path50" />
    <path
       style="fill:#1a1a1a;stroke-width:0.264583"
       d="m 52.038697,22.565298 2.910417,1.711523 0.198437,-0.23151 -2.960026,-1.653646 z"
       id="path66" />
    <path
       style="fill:#333333;stroke-width:0.264583"
       d="m 53.353346,15.223111 11.922786,-2.629297 -8.632031,4.630208 z"
       id="path53" />
    <path
       style="fill:#666666;stroke-width:0.264583"
       d="m 55.004068,24.181212 6.103768,-3.5313 -4.513514,-3.578071 z"
       id="path55" />
    <path
       style="fill:#1a1a1a;stroke-width:0.264583"
       d="m 56.606017,17.223851 8.559305,-4.630445 1.590254,4.291347 -5.846522,3.800238 z"
       id="path56" />
    <path
       style="fill:#333333;stroke-width:0.264583"
       d="m 49.235768,21.027408 1.322916,0.677994 -2.000911,11.773958 -3.538802,-1.984375 z"
       id="path57" />
    <path
       style="fill:#333333;stroke-width:0.264583"
       d="m 48.607382,20.928189 3.439583,1.5875 1.455209,-7.242969 z"
       id="path59" />
    <path
       style="fill:#1a1a1a;stroke-width:0.264583"
       d="m 48.574309,20.961262 3.530534,1.670182 0.165365,-0.239779 -3.571875,-1.579231 z"
       id="path60" />
    <path
       style="fill:#1a1a1a;stroke-width:0.264583"
       d="m 49.136549,21.209309 0.132291,0.04134 -4.001822,10.434505 -0.396875,-0.28112 z"
       id="path64" />
    <path
       style="fill:#1a1a1a;stroke-width:0.264583"
       d="m 54.858163,24.185871 0.01143,13.012618 -0.26017,-0.14324 0.09647,-12.973429 z"
       id="path67" />
    <path
       style="fill:#1a1a1a;stroke-width:0.264583"
       d="m 53.336809,15.438085 3.191537,2.000911 0.297656,-0.314193 -3.274219,-1.934765 z"
       id="path84" />
    <path
       style="fill:#1a1a1a;stroke-width:0.264583"
       d="m 56.528346,17.207486 8.648567,-4.679818 0.08268,0.214974 -8.731249,4.630208 z"
       id="path118" />
    <path
       style="fill:#1a1a1a;stroke-width:0.264583"
       d="m 56.478736,17.323241 -1.670182,6.779948 h 0.347266 l 1.686718,-6.994922 z"
       id="path119" />
    <path
       style="fill:#1a1a1a;stroke-width:0.264583"
       d="m 48.491627,20.853775 4.910495,-5.711285 0.245554,0.128623 -4.922771,5.72959 z"
       id="path120" />
    <g
       id="g127"
       transform="translate(-2.0355211,-2.181512)">
      <path
         style="fill:#00ffff;stroke-width:0.264583"
         d="m 61.376776,19.948329 1.391473,-0.935443 0.268938,1.976124 z"
         id="path124" />
      <path
         style="fill:#666666;stroke-width:0.264583"
         d="m 61.102213,19.942969 0.322461,0.0124 1.331185,-0.91364 0.04548,-0.239778 z"
         id="path125" />
      <path
         style="fill:#4d4d4d;stroke-width:0.264583"
         d="M 61.110481,19.934701 63.177538,21.19974 63.02871,20.955827 61.416405,19.930566 Z"
         id="path126" />
      <path
         style="fill:#1a1a1a;stroke-width:0.264583"
         d="M 62.739322,19.008659 63.032846,20.9889 63.165137,21.179069 62.7972,18.814355 Z"
         id="path127" />
    </g>
    <g
       id="use127"
       transform="matrix(-0.99652433,-0.04562928,-0.08330217,-1.007302,126.24925,40.460507)">
      <path
         style="fill:#00ffff;stroke-width:0.264583"
         d="m 61.376776,19.948329 1.391473,-0.935443 0.268938,1.976124 z"
         id="path128" />
      <path
         style="fill:#666666;stroke-width:0.264583"
         d="m 61.102213,19.942969 0.322461,0.0124 1.331185,-0.91364 0.04548,-0.239778 z"
         id="path129" />
      <path
         style="fill:#4d4d4d;stroke-width:0.264583"
         d="M 61.110481,19.934701 63.177538,21.19974 63.02871,20.955827 61.416405,19.930566 Z"
         id="path130" />
      <path
         style="fill:#1a1a1a;stroke-width:0.264583"
         d="M 62.739322,19.008659 63.032846,20.9889 63.165137,21.179069 62.7972,18.814355 Z"
         id="path131" />
    </g>
    <g
       id="use128"
       transform="translate(1.3048435,-4.2651058)">
      <path
         style="fill:#00ffff;stroke-width:0.264583"
         d="m 61.376776,19.948329 1.391473,-0.935443 0.268938,1.976124 z"
         id="path132" />
      <path
         style="fill:#666666;stroke-width:0.264583"
         d="m 61.102213,19.942969 0.322461,0.0124 1.331185,-0.91364 0.04548,-0.239778 z"
         id="path133" />
      <path
         style="fill:#4d4d4d;stroke-width:0.264583"
         d="M 61.110481,19.934701 63.177538,21.19974 63.02871,20.955827 61.416405,19.930566 Z"
         id="path134" />
      <path
         style="fill:#1a1a1a;stroke-width:0.264583"
         d="M 62.739322,19.008659 63.032846,20.9889 63.165137,21.179069 62.7972,18.814355 Z"
         id="path135" />
    </g>
    <g
       id="g7">
      <path
         style="fill:#666666;stroke-width:0.264583"
         d="m 66.654899,30.532065 0.07016,-13.891333 1.637025,14.709847 z"
         id="path41" />
      <path
         style="fill:#000000;stroke-width:0.264583"
         d="M 68.3387,31.257034 66.678286,16.734277 68.03468,17.178612 68.5024,31.28042 Z"
         id="path42" />
      <path
         style="fill:#1a1a1a;stroke-width:0.264583"
         d="M 68.315313,31.257034 69.999111,30.134502 67.964521,17.24877 Z"
         id="path43" />
      <path
         style="fill:#333333;stroke-width:0.264583"
         d="m 67.987907,17.13184 1.356392,-0.771741 0.631425,13.797789 -1.96443,-12.184149 z"
         id="path44" />
      <path
         style="fill:#b3b3b3;stroke-width:0.264583"
         d="m 66.475025,16.703124 1.529622,0.661458 1.711524,-0.975651 -0.463021,-0.190169 z"
         id="path52" />
      <g
         id="use144"
         transform="translate(9.5151948,-9.9453792)">
        <path
           style="fill:#ffcc00;stroke-width:0.264583"
           d="m 57.914812,26.437663 0.48369,0.454753 1.02526,-0.636654 z"
           id="path7" />
        <g
           id="g12">
          <path
             style="fill:#aa8800;stroke-width:0.264583"
             d="m 57.927213,26.437663 -0.305925,-0.954981 0.347266,-0.872298 0.417547,2.269629 z"
             id="path8" />
          <path
             style="fill:#ffcc00;stroke-width:0.264583"
             d="m 57.617156,25.482682 0.781346,1.397331 -0.496094,-0.429948 z"
             id="path9" />
          <path
             style="fill:#d4aa00;stroke-width:0.264583"
             d="m 58.361296,26.867612 0.756542,-2.095997 0.293523,1.484147 z"
             id="path10" />
          <path
             style="fill:#ffe680;stroke-width:0.264583"
             d="m 57.964421,24.626921 1.145149,0.177766 -0.202571,0.599447 z"
             id="path11" />
          <path
             style="fill:#ffcc00;stroke-width:0.264583"
             d="m 57.969715,24.616776 0.955908,0.767356 -0.532034,1.502556 z"
             id="path12" />
        </g>
      </g>
    </g>
    <g
       id="g146"
       transform="translate(0.04960937,-1.405599)">
      <path
         style="fill:#4d4d4d;stroke-width:0.264583"
         d="m 58.091032,29.817255 -0.02339,0.467723 8.629465,-5.776363 z"
         id="path145" />
      <path
         style="fill:#666666;stroke-width:0.264583"
         d="m 58.079338,30.261591 8.494995,-5.250175 0.05262,-0.456028 z"
         id="path146" />
    </g>
    <use
       x="0"
       y="0"
       xlink:href="#g146"
       id="use146"
       transform="translate(-0.3141927,-3.2411459)" />
    <use
       x="0"
       y="0"
       xlink:href="#use146"
       id="use147"
       transform="translate(0.42994791,6.168099)" />
    <use
       x="0"
       y="0"
       xlink:href="#use147"
       id="use148"
       transform="translate(-0.18190104,3.1253906)" />
    <g
       id="use13"
       transform="translate(-12.137378,7.1327556)">
      <path
         style="fill:#666666;stroke-width:0.264583"
         d="m 66.654899,30.532065 0.07016,-13.891333 1.637025,14.709847 z"
         id="path13" />
      <path
         style="fill:#000000;stroke-width:0.264583"
         d="M 68.3387,31.257034 66.678286,16.734277 68.03468,17.178612 68.5024,31.28042 Z"
         id="path14" />
      <path
         style="fill:#1a1a1a;stroke-width:0.264583"
         d="M 68.315313,31.257034 69.999111,30.134502 67.964521,17.24877 Z"
         id="path15" />
      <path
         style="fill:#333333;stroke-width:0.264583"
         d="m 67.987907,17.13184 1.356392,-0.771741 0.631425,13.797789 -1.96443,-12.184149 z"
         id="path16" />
      <path
         style="fill:#b3b3b3;stroke-width:0.264583"
         d="m 66.475025,16.703124 1.529622,0.661458 1.711524,-0.975651 -0.463021,-0.190169 z"
         id="path17" />
      <g
         id="g24"
         transform="translate(9.5151948,-9.9453792)">
        <path
           style="fill:#ffcc00;stroke-width:0.264583"
           d="m 57.914812,26.437663 0.48369,0.454753 1.02526,-0.636654 z"
           id="path18" />
        <g
           id="g23">
          <path
             style="fill:#aa8800;stroke-width:0.264583"
             d="m 57.927213,26.437663 -0.305925,-0.954981 0.347266,-0.872298 0.417547,2.269629 z"
             id="path19" />
          <path
             style="fill:#ffcc00;stroke-width:0.264583"
             d="m 57.617156,25.482682 0.781346,1.397331 -0.496094,-0.429948 z"
             id="path20" />
          <path
             style="fill:#d4aa00;stroke-width:0.264583"
             d="m 58.361296,26.867612 0.756542,-2.095997 0.293523,1.484147 z"
             id="path21" />
          <path
             style="fill:#ffe680;stroke-width:0.264583"
             d="m 57.964421,24.626921 1.145149,0.177766 -0.202571,0.599447 z"
             id="path22" />
          <path
             style="fill:#ffcc00;stroke-width:0.264583"
             d="m 57.969715,24.616776 0.955908,0.767356 -0.532034,1.502556 z"
             id="path23" />
        </g>
      </g>
    </g>
  </g>
</svg>
