<?xml version="1.0" encoding="UTF-8" standalone="no"?>
<!-- Created with Inkscape (http://www.inkscape.org/) -->

<svg
   width="210mm"
   height="297mm"
   viewBox="0 0 210 297"
   version="1.1"
   id="svg1"
   inkscape:version="1.3.2 (091e20e, 2023-11-25, custom)"
   sodipodi:docname="MarsLendPattern.svg"
   xmlns:inkscape="http://www.inkscape.org/namespaces/inkscape"
   xmlns:sodipodi="http://sodipodi.sourceforge.net/DTD/sodipodi-0.dtd"
   xmlns="http://www.w3.org/2000/svg"
   xmlns:svg="http://www.w3.org/2000/svg">
  <sodipodi:namedview
     id="namedview1"
     pagecolor="#505050"
     bordercolor="#eeeeee"
     borderopacity="1"
     inkscape:showpageshadow="0"
     inkscape:pageopacity="0"
     inkscape:pagecheckerboard="0"
     inkscape:deskcolor="#505050"
     inkscape:document-units="mm"
     showguides="true"
     inkscape:zoom="3.0467172"
     inkscape:cx="198.7385"
     inkscape:cy="146.22296"
     inkscape:window-width="1920"
     inkscape:window-height="1111"
     inkscape:window-x="-9"
     inkscape:window-y="-9"
     inkscape:window-maximized="1"
     inkscape:current-layer="layer1">
    <sodipodi:guide
       position="45.809355,206.11817"
       orientation="0,-1"
       id="guide1"
       inkscape:locked="false" />
  </sodipodi:namedview>
  <defs
     id="defs1" />
  <g
     inkscape:label="Слой 1"
     inkscape:groupmode="layer"
     id="layer1">
    <rect
       style="fill:#ff6600;stroke-width:0.109264"
       id="rect1"
       width="23.070545"
       height="23.070545"
       x="52.658867"
       y="-13.967274"
       ry="0"
       rx="0"
       transform="matrix(0.86690631,0.4984711,-0.86690631,0.4984711,0,0)" />
    <rect
       style="fill:#552200;stroke-width:0.28151"
       id="rect7"
       width="23.064779"
       height="16.378414"
       x="43.441757"
       y="9.1840887"
       transform="matrix(0.86722723,0.49791257,0.00507004,0.99998715,0,0)" />
    <rect
       style="fill:#aa4400;stroke-width:0.28151"
       id="rect7-4"
       width="23.064779"
       height="16.378414"
       x="-90.089455"
       y="75.680779"
       transform="matrix(-0.86722723,0.49791257,-0.00507004,0.99998715,0,0)" />
    <path
       style="fill:#ff7f2a;stroke-width:0.264583"
       d="m 43.660123,29.659408 9.763654,-4.605499 7.553018,2.701893 z"
       id="path7" />
    <path
       style="fill:#ffb380;stroke-width:0.264583"
       d="m 59.573683,35.605262 5.38421,-0.521052 -5.514472,4.732896 z"
       id="path8" />
    <path
       style="fill:#d45500;stroke-width:0.264583"
       d="m 66.564472,28.180262 1.25921,4.646055 -17.281577,2.561841 z"
       id="path9" />
    <path
       style="fill:#d45500;stroke-width:0.264583"
       d="M 62.005262,23.794737 63.481579,26.313158 61.05,25.922368 Z"
       id="path10" />
    <path
       style="fill:#ffb380;stroke-width:0.264583"
       d="m 47.372367,32.913158 -1.085524,-2.648685 3.951314,0.694737 z"
       id="path11" />
    <path
       style="fill:#ff7f2a;stroke-width:0.264583"
       d="m 69.994737,30.003948 0.781579,2.475 3.169735,-1.953948 z"
       id="path12" />
    <path
       style="fill:#ff7f2a;stroke-width:0.264583"
       d="m 55.23158,22.231579 2.257893,2.90921 2.127631,-3.082895 z"
       id="path13" />
    <path
       style="fill:#ff7f2a;stroke-width:0.264583"
       d="m 53.842104,38.080262 2.127631,2.301316 0.651317,-3.517106 z"
       id="path14" />
    <path
       style="fill:#2b1100;stroke-width:0.264583"
       d="m 48.718422,46.330264 0.43421,3.907893 5.210524,-3.864473 z"
       id="path15" />
    <path
       style="fill:#2b1100;stroke-width:0.264583"
       d="m 43.203947,48.848684 2.388158,-0.521052 -2.561841,-1.65 z"
       id="path16" />
    <path
       style="fill:#2b1100;stroke-width:0.264583"
       d="m 40.728947,44.723684 0.564473,1.563159 2.431579,-1.128948 z"
       id="path17" />
    <path
       style="fill:#2b1100;stroke-width:0.264583"
       d="m 44.463157,43.81184 -1.519737,-1.736841 3.560527,-0.43421 z"
       id="path18" />
    <path
       style="fill:#2b1100;stroke-width:0.264583"
       d="m 47.415788,45.201316 0.43421,-1.736842 -2.257893,1.563156 z"
       id="path19" />
    <path
       style="fill:#2b1100;stroke-width:0.264583"
       d="m 52.409211,43.247368 -2.127634,-3.647369 -3.169734,1.606579 z"
       id="path20" />
    <path
       style="fill:#2b1100;stroke-width:0.264583"
       d="M 40.46842,37.863158 39.817106,41.988157 38.38421,40.424999 Z"
       id="path21" />
    <path
       style="fill:#2b1100;stroke-width:0.264583"
       d="m 41.29342,36.430262 1.65,2.735527 2.996054,-0.825 z"
       id="path22" />
    <path
       style="fill:#2b1100;stroke-width:0.264583"
       d="m 52.626315,51.019736 0.998686,3.821054 2.040789,-7.728947 z"
       id="path23" />
    <path
       style="fill:#2b1100;stroke-width:0.264583"
       d="m 46.503947,51.280263 1.823685,1.172369 -1.563158,-4.515789 z"
       id="path24" />
    <path
       style="fill:#2b1100;stroke-width:0.264583"
       d="m 53.842104,43.203947 0.39079,1.953948 1.65,-0.825 z"
       id="path25" />
    <path
       style="fill:#2b1100;stroke-width:0.264583"
       d="m 39.773685,36.473683 -1.085527,-1.867104 2.561841,-0.477631 z"
       id="path26" />
    <path
       style="fill:#2b1100;stroke-width:0.264583"
       d="m 38.861841,46.417105 0.998685,0.825 -0.08684,-4.342106 z"
       id="path27" />
    <path
       style="fill:#2b1100;stroke-width:0.264583"
       d="m 55.709211,55.492104 0.955262,1.563159 0.347369,-4.732896 z"
       id="path28" />
    <path
       style="fill:#803300;stroke-width:0.264583"
       d="M 62.873683,53.321053 60.61579,49.065788 67.042103,46.851315 Z"
       id="path29" />
    <path
       style="fill:#803300;stroke-width:0.264583"
       d="m 75.465788,47.242105 -9.248685,3.473683 2.692107,-6.556579 z"
       id="path30" />
    <path
       style="fill:#803300;stroke-width:0.264583"
       d="m 75.118419,36.951316 1.780265,8.163158 -10.898685,-3.73421 z"
       id="path31" />
    <path
       style="fill:#803300;stroke-width:0.264583"
       d="M 62.873683,42.205264 60.876314,45.722367 59.00921,44.072368 Z"
       id="path32" />
    <path
       style="fill:#803300;stroke-width:0.264583"
       d="m 65.044737,43.507895 -0.173686,2.778948 -1.997368,-0.130265 z"
       id="path33" />
    <path
       style="fill:#803300;stroke-width:0.264583"
       d="m 74.72763,34.476317 -1.953945,1.780262 -1.128948,-0.955263 z"
       id="path34" />
    <path
       style="fill:#803300;stroke-width:0.264583"
       d="m 59.356579,55.796052 -0.173685,-4.081579 2.865789,2.475 z"
       id="path35" />
  </g>
</svg>
