<?xml version="1.0" encoding="UTF-8" standalone="no"?>
<!-- Created with Inkscape (http://www.inkscape.org/) -->

<svg
   width="210mm"
   height="297mm"
   viewBox="0 0 210 297"
   version="1.1"
   id="svg1"
   inkscape:version="1.3.2 (091e20e, 2023-11-25, custom)"
   sodipodi:docname="MarsHoulLendPattern.svg"
   xmlns:inkscape="http://www.inkscape.org/namespaces/inkscape"
   xmlns:sodipodi="http://sodipodi.sourceforge.net/DTD/sodipodi-0.dtd"
   xmlns="http://www.w3.org/2000/svg"
   xmlns:svg="http://www.w3.org/2000/svg">
  <sodipodi:namedview
     id="namedview1"
     pagecolor="#505050"
     bordercolor="#eeeeee"
     borderopacity="1"
     inkscape:showpageshadow="0"
     inkscape:pageopacity="0"
     inkscape:pagecheckerboard="0"
     inkscape:deskcolor="#505050"
     inkscape:document-units="mm"
     showguides="true"
     inkscape:zoom="2.1543544"
     inkscape:cx="217.46655"
     inkscape:cy="72.179398"
     inkscape:window-width="1920"
     inkscape:window-height="1111"
     inkscape:window-x="-9"
     inkscape:window-y="-9"
     inkscape:window-maximized="1"
     inkscape:current-layer="layer1">
    <sodipodi:guide
       position="45.809355,206.11817"
       orientation="0,-1"
       id="guide1"
       inkscape:locked="false" />
  </sodipodi:namedview>
  <defs
     id="defs1" />
  <g
     inkscape:label="Слой 1"
     inkscape:groupmode="layer"
     id="layer1">
    <rect
       style="fill:#ff6600;stroke-width:0.109264;opacity:0"
       id="rect1"
       width="23.070545"
       height="23.070545"
       x="52.658867"
       y="-13.967274"
       ry="0"
       rx="0"
       transform="matrix(0.86690631,0.4984711,-0.86690631,0.4984711,0,0)"
       inkscape:export-filename="MarsHoulLendPattern.png"
       inkscape:export-xdpi="200"
       inkscape:export-ydpi="200" />
    <rect
       style="fill:#2b1100;stroke-width:0.109264"
       id="rect1-5"
       width="23.070545"
       height="23.070545"
       x="62.447441"
       y="-4.1404219"
       ry="0"
       rx="0"
       transform="matrix(0.86690632,0.4984711,-0.86690632,0.4984711,0,0)" />
    <path
       style="opacity:1;fill:#ff7f2a;stroke-width:0.264583"
       d="M 65.661684,39.08654 73.521736,38.165441 67.56529,31.809853 Z"
       id="path17" />
    <path
       style="opacity:1;fill:#d45500;stroke-width:0.264583"
       d="m 67.595995,31.809853 -1.934308,7.460909 -2.02642,-1.28954 z"
       id="path18" />
    <path
       style="opacity:1;fill:#ff7f2a;stroke-width:0.264583"
       d="m 58.999063,26.928026 -2.548374,5.465191 -3.039628,-0.767583 z"
       id="path16" />
    <path
       style="opacity:1;fill:#ffb380;stroke-width:0.264583"
       d="m 56.266468,32.761657 7.645127,-0.122814 -4.881827,-5.772224 z"
       id="path15" />
    <path
       style="opacity:1;fill:#d45500;stroke-width:0.263058"
       d="m 51.384641,29.691326 7.739354,7.061764 5.463073,-2.425563 z"
       id="path14" />
    <path
       style="opacity:1;fill:#aa4400;stroke-width:0.264583"
       d="m 49.266112,36.660978 10.039987,0.245628 -7.860051,-7.245984 z"
       id="path13" />
    <path
       style="opacity:1;fill:#aa4400;stroke-width:0.264583"
       d="m 55.314667,42.31039 16.272758,-1.043913 -12.0357,-6.10996 z"
       id="path11" />
    <path
       style="opacity:1;fill:#803300;stroke-width:0.264583"
       d="m 55.314667,42.279685 4.26776,-7.092465 -9.180292,4.206353 z"
       id="path12" />
    <path
       style="opacity:0;fill:#ff6600;stroke-width:0.264583"
       d="m 57.740229,52.043342 10.552898,-6.092719 -6.59217,-7.171116 z"
       id="path1" />
    <path
       style="opacity:1;fill:#803300;stroke-width:0.264583"
       d="m 58.906954,38.871619 -4.390575,5.158158 11.114603,1.504461 z"
       id="path6" />
    <path
       style="opacity:1;fill:#ff9955;stroke-width:0.264583"
       d="M 77.63598,40.560301 66.138699,47.198258 58.876252,38.871619 Z"
       id="path5" />
    <path
       style="opacity:0;fill:#ff9955;stroke-width:0.264583"
       d="M 59.336801,48.389647 64.464257,45.1658 58.999063,43.047271 Z"
       id="path2" />
    <path
       style="opacity:1;fill:#ff7f2a;stroke-width:0.264583"
       d="m 57.740229,52.043342 11.23946,-6.489105 -6.726073,-6.252773 z"
       id="path3" />
    <path
       style="opacity:1;fill:#d45500;stroke-width:0.264583"
       d="m 57.740229,52.043342 -4.756071,-2.74592 9.26946,-9.934551 z"
       id="path4" />
    <path
       style="opacity:1;fill:#aa4400;stroke-width:0.264583"
       d="m 43.002636,32.761657 4.943234,8.842558 5.895036,-2.732596 z"
       id="path10" />
    <path
       style="opacity:1;fill:#803300;stroke-width:0.264583"
       d="M 47.915165,41.512103 37.813773,40.560301 43.002636,32.70025 Z"
       id="path9" />
    <path
       style="opacity:1;fill:#ff7f2a;stroke-width:0.264497"
       d="m 48.713453,46.854482 7.921455,-2.131174 -1.516214,-8.737803 z"
       id="path7" />
    <path
       style="opacity:1;fill:#d45500;stroke-width:0.264583"
       d="M 48.713453,46.885185 43.432965,43.836492 55.130448,35.954803 Z"
       id="path8" />
    <path
       style="opacity:1;fill:#aa4400;stroke-width:0.264583"
       d="M 57.660836,58.796859 V 52.011426 L 77.6435,40.474429 v 6.839389 z"
       id="path19" />
    <path
       style="opacity:1;fill:#552200;stroke-width:0.264583"
       d="M 57.637809,58.773832 V 52.018421 L 37.787397,40.55778 v 6.792878 z"
       id="path20" />
    <path
       style="opacity:1;fill:#2b1100;stroke-width:0.264583"
       d="m 41.081044,47.590146 2.210639,1.65798 1.043913,-1.473759 z"
       id="path21" />
    <path
       style="opacity:1;fill:#2b1100;stroke-width:0.264583"
       d="m 47.283113,48.879685 1.596572,2.886115 3.31596,-0.307036 z"
       id="path22" />
    <path
       style="opacity:1;fill:#2b1100;stroke-width:0.264583"
       d="m 39.30025,43.844342 1.28954,1.473761 1.903605,-0.736881 z"
       id="path23" />
    <path
       style="opacity:1;fill:#2b1100;stroke-width:0.264583"
       d="m 52.195645,53.362372 2.824705,2.210639 0.859694,-3.193145 z"
       id="path24" />
    <path
       style="opacity:1;fill:#2b1100;stroke-width:0.264583"
       d="m 45.256695,46.853268 0.491252,2.517672 1.473761,-1.780794 z"
       id="path25" />
    <path
       style="opacity:1;fill:#2b1100;stroke-width:0.264583"
       d="m 42.186362,46.484828 2.272046,0.429847 0.06141,-1.350946 z"
       id="path26" />
    <path
       style="opacity:1;fill:#2b1100;stroke-width:0.264583"
       d="m 38.870405,45.932169 -0.307035,0.736878 1.350946,1.043913 0.491255,-1.228132 z"
       id="path27" />
    <path
       style="opacity:1;fill:#2b1100;stroke-width:0.264583"
       d="m 51.274545,53.178151 -0.307033,1.28954 -1.657979,-1.412352 z"
       id="path28" />
    <path
       style="opacity:1;fill:#2b1100;stroke-width:0.264583"
       d="m 46.669047,50.10782 0.36844,1.473759 -1.65798,-1.28954 z"
       id="path29" />
    <path
       style="opacity:1;fill:#803300;stroke-width:0.264583"
       d="m 60.301322,53.73081 0.36844,1.965013 8.965369,-4.421278 z"
       id="path30" />
    <path
       style="opacity:1;fill:#803300;stroke-width:0.264583"
       d="m 71.170296,45.932169 -7.737236,3.500178 5.035346,0.736878 z"
       id="path31" />
    <path
       style="opacity:1;fill:#803300;stroke-width:0.264583"
       d="m 75.591576,44.151375 1.043911,2.333453 -4.605496,0.491252 z"
       id="path32" />
    <path
       style="opacity:1;fill:#803300;stroke-width:0.264583"
       d="m 70.679045,48.879685 0.245625,1.65798 2.763301,-1.596573 z"
       id="path33" />
    <path
       style="opacity:1;fill:#803300;stroke-width:0.264583"
       d="M 61.345235,50.906105 59.748663,54.09925 58.888968,52.809711 Z"
       id="path34" />
    <path
       style="opacity:1;fill:#803300;stroke-width:0.264583"
       d="m 74.302037,43.35309 -1.412354,1.596572 -1.412354,-0.122814 z"
       id="path35" />
  </g>
</svg>
